<?xml version="1.0" encoding="utf-8"?>
<!-- Generator: Adobe Illustrator 18.0.0, SVG Export Plug-In . SVG Version: 6.00 Build 0)  -->
<!DOCTYPE svg PUBLIC "-//W3C//DTD SVG 1.1//EN" "http://www.w3.org/Graphics/SVG/1.1/DTD/svg11.dtd">
<svg version="1.1" id="Layer_1" xmlns="http://www.w3.org/2000/svg" xmlns:xlink="http://www.w3.org/1999/xlink" x="0px" y="0px"
	 viewBox="0 0 529 146" enable-background="new 0 0 529 146" xml:space="preserve">
<g>
	<path fill-rule="evenodd" clip-rule="evenodd" fill="#00AEEF" d="M38,70.9C39.6,52.1,54.7,37,73.5,35.4v35.5H38z"/>
	<path fill-rule="evenodd" clip-rule="evenodd" d="M73.5,113.2C54.7,111.6,39.6,96.5,38,77.7h35.5V113.2z"/>
	<path fill-rule="evenodd" clip-rule="evenodd" fill="#FFF200" d="M115.8,77.7c-1.6,18.9-16.6,33.9-35.5,35.5V77.7H115.8z"/>
	<path fill-rule="evenodd" clip-rule="evenodd" fill="#EC008C" d="M80.3,35.4c18.9,1.6,33.9,16.6,35.5,35.5H80.3V35.4z"/>
	<path fill-rule="evenodd" clip-rule="evenodd" d="M170.1,33.4h-17.9V62h3.4V49.3h12v-3.1h-12v-9.8h14.5V33.4L170.1,33.4z
		 M197.3,33.4h-3.4v17.5c0,2.8-0.7,4.9-2.2,6.3c-1.5,1.4-3.4,2.2-5.7,2.2c-2.4,0-4.3-0.7-5.8-2.2c-1.5-1.4-2.2-3.6-2.2-6.3V33.4
		h-3.4v17.2c0,3.7,1.1,6.6,3.2,8.7c2.1,2.1,4.9,3.1,8.2,3.1c3.3,0,6-1,8.1-3.1c2.1-2.1,3.2-5,3.2-8.7V33.4L197.3,33.4z M224.2,33.4
		v21.5l-18.2-22h-1.2V62h3.4V40.5l18.2,22h1.2V33.4H224.2L224.2,33.4z M235.5,62h3.4V33.4h-3.4V62L235.5,62z M243.6,46.6l12.8-13.3
		h-4.3l-12.9,13.3L253.3,62h4.3L243.6,46.6L243.6,46.6z M297.2,49.3l-2.8-1.8c-2,3.1-3.4,5.1-4.2,6.2l-6.1-7.3
		c3.4-2.6,5.1-5.1,5.1-7.7c0-1.7-0.6-3.1-1.7-4.2c-1.2-1.1-2.7-1.7-4.5-1.7c-2,0-3.5,0.6-4.7,1.8c-1.1,1.2-1.7,2.7-1.7,4.5
		c0,2,1,4.3,3.1,6.9c-2.1,1.6-3.7,3-4.8,4.3c-1.1,1.3-1.6,2.9-1.6,4.6c0,2.2,0.8,4,2.5,5.4c1.7,1.4,3.8,2.1,6.2,2.1
		c3,0,5.8-1.2,8.3-3.7L293,62h4.1l-4.7-5.7C292.9,55.6,294.5,53.3,297.2,49.3L297.2,49.3z M283,36c1,0,1.7,0.3,2.2,0.8
		c0.5,0.5,0.8,1.3,0.8,2.1c0,1.7-1.2,3.5-3.6,5.3c-1.6-2-2.4-3.7-2.4-5.1C279.9,37,281,36,283,36L283,36z M282.1,59.3
		c-1.5,0-2.8-0.4-3.8-1.3c-1-0.9-1.5-2-1.5-3.3c0-0.8,0.2-1.6,0.7-2.4c0.5-0.8,1-1.4,1.5-1.9c0.5-0.5,1.4-1.2,2.6-2.1l6.5,7.9
		C286.3,58.3,284.3,59.3,282.1,59.3L282.1,59.3z M322.5,32.9c-2.4,0-4.4,0.7-6.1,2.1c-1.7,1.4-2.5,3.2-2.5,5.4
		c0,1.8,0.6,3.3,1.7,4.5c1.1,1.2,2.7,2.2,4.7,3.2l3.2,1.5c1.7,0.8,2.9,1.5,3.7,2.2c0.7,0.7,1.1,1.6,1.1,2.8c0,1.4-0.5,2.6-1.6,3.5
		c-1.1,0.9-2.5,1.3-4.2,1.3c-3.2,0-5.8-1.6-8-4.9l-2.5,1.9c1.1,1.9,2.6,3.4,4.4,4.5c1.8,1.1,3.9,1.6,6.1,1.6c2.7,0,4.9-0.7,6.6-2.2
		c1.7-1.5,2.6-3.4,2.6-5.8c0-1.8-0.5-3.3-1.6-4.5c-1.1-1.2-2.8-2.4-5-3.4L322,45c-0.8-0.4-1.5-0.7-1.9-0.9s-0.9-0.5-1.4-0.9
		c-0.5-0.4-0.9-0.8-1.1-1.3c-0.2-0.5-0.3-1-0.3-1.6c0-1.3,0.5-2.4,1.5-3.1c1-0.7,2.2-1.1,3.6-1.1c2.8,0,5,1.2,6.5,3.6l2.5-1.9
		c-0.9-1.4-2.2-2.6-3.7-3.5C326.2,33.3,324.4,32.9,322.5,32.9L322.5,32.9z M351.4,32.9c-4.2,0-7.7,1.4-10.5,4.3
		c-2.9,2.8-4.3,6.3-4.3,10.5s1.4,7.7,4.3,10.5c2.9,2.8,6.4,4.3,10.5,4.3c2.5,0,4.9-0.6,7-1.7c2.1-1.1,3.7-2.6,4.9-4.5l-2.5-2
		c-2.3,3.4-5.4,5-9.3,5c-3.2,0-5.9-1.1-8.1-3.3c-2.2-2.2-3.3-5-3.3-8.3c0-3.3,1.1-6.1,3.3-8.3c2.2-2.2,4.9-3.3,8.1-3.3
		c3.9,0,7,1.7,9.3,5l2.5-2c-1.2-1.9-2.9-3.4-4.9-4.5C356.3,33.4,354,32.9,351.4,32.9L351.4,32.9z M392.2,33.4h-3.4v11.8h-16V33.4
		h-3.4V62h3.4V48.2h16V62h3.4V33.4L392.2,33.4z M422.4,33.4H419v17.5c0,2.8-0.7,4.9-2.2,6.3c-1.5,1.4-3.4,2.2-5.7,2.2
		c-2.4,0-4.3-0.7-5.8-2.2c-1.5-1.4-2.2-3.6-2.2-6.3V33.4h-3.4v17.2c0,3.7,1.1,6.6,3.2,8.7c2.1,2.1,4.9,3.1,8.2,3.1
		c3.3,0,6-1,8.1-3.1c2.1-2.1,3.2-5,3.2-8.7V33.4L422.4,33.4z M438,32.9c-2.4,0-4.4,0.7-6.1,2.1c-1.7,1.4-2.5,3.2-2.5,5.4
		c0,1.8,0.6,3.3,1.7,4.5c1.1,1.2,2.7,2.2,4.7,3.2l3.2,1.5c1.7,0.8,2.9,1.5,3.7,2.2c0.7,0.7,1.1,1.6,1.1,2.8c0,1.4-0.5,2.6-1.6,3.5
		c-1.1,0.9-2.5,1.3-4.2,1.3c-3.2,0-5.8-1.6-8-4.9l-2.5,1.9c1.1,1.9,2.6,3.4,4.4,4.5c1.8,1.1,3.9,1.6,6.1,1.6c2.7,0,4.9-0.7,6.6-2.2
		c1.7-1.5,2.6-3.4,2.6-5.8c0-1.8-0.5-3.3-1.6-4.5c-1.1-1.2-2.8-2.4-5-3.4l-3.2-1.5c-0.8-0.4-1.5-0.7-1.9-0.9s-0.9-0.5-1.4-0.9
		c-0.5-0.4-0.9-0.8-1.1-1.3c-0.2-0.5-0.3-1-0.3-1.6c0-1.3,0.5-2.4,1.5-3.1c1-0.7,2.2-1.1,3.6-1.1c2.8,0,5,1.2,6.5,3.6l2.5-1.9
		c-0.9-1.4-2.2-2.6-3.7-3.5C441.6,33.3,439.9,32.9,438,32.9L438,32.9z M474.3,33.4h-23.5v3h10.1V62h3.4V36.4h10.1V33.4L474.3,33.4z
		 M497.4,33.4h-18.3V62h18.8v-3h-15.5V48.2h11.4v-3h-11.4v-8.8h14.9V33.4L497.4,33.4z M525.9,62l-9.1-12.4c1.8-0.5,3.3-1.5,4.4-2.9
		c1.1-1.4,1.6-3.1,1.6-5c0-2.4-0.8-4.4-2.5-6c-1.7-1.5-3.9-2.3-6.7-2.3h-10.1V62h3.4V50h6.1l8.9,12H525.9L525.9,62z M507,36.4h6.5
		c1.8,0,3.2,0.5,4.2,1.5c1,1,1.5,2.3,1.5,3.8c0,1.6-0.5,2.9-1.5,3.8c-1,1-2.4,1.4-4.3,1.4H507V36.4z"/>
	<polygon fill-rule="evenodd" clip-rule="evenodd" points="162.7,88 152.3,88 152.3,103.8 155.5,103.8 155.5,97.8 161.4,97.8 
		161.4,94.9 155.5,94.9 155.5,90.9 162.7,90.9 162.7,88 	"/>
	<polygon fill-rule="evenodd" clip-rule="evenodd" points="180.1,88 176.9,88 176.9,103.8 180.1,103.8 180.1,88 	"/>
	<polygon fill-rule="evenodd" clip-rule="evenodd" points="207.1,88 207.1,97.4 197.9,87.7 196.9,87.7 196.9,103.8 200.1,103.8 
		200.1,94.3 209.3,104.1 210.3,104.1 210.3,88 207.1,88 	"/>
	<polygon fill-rule="evenodd" clip-rule="evenodd" points="235.8,88 225.2,88 225.2,103.8 236.1,103.8 236.1,100.9 228.4,100.9 
		228.4,96.9 233.9,96.9 233.9,94.1 228.4,94.1 228.4,90.9 235.8,90.9 235.8,88 	"/>
	<path fill-rule="evenodd" clip-rule="evenodd" d="M276.6,103.8h3.5L273,87.7h-1.1l-7.1,16.1h3.5l0.9-2.1h6.5L276.6,103.8
		L276.6,103.8z M274.6,99.1h-4.2l2.1-5.3L274.6,99.1L274.6,99.1z"/>
	<path fill-rule="evenodd" clip-rule="evenodd" d="M305,103.8l-4.5-6.2c0.9-0.4,1.5-1,2-1.8c0.5-0.8,0.7-1.7,0.7-2.7
		c0-1.5-0.5-2.8-1.6-3.7c-1.1-0.9-2.4-1.4-4.1-1.4h-6v15.8h3.2v-5.6h2.4l4.1,5.6H305L305,103.8z M294.8,90.8h2.7
		c0.7,0,1.3,0.2,1.8,0.6c0.4,0.4,0.6,1,0.6,1.6c0,0.7-0.2,1.2-0.6,1.7c-0.4,0.4-1,0.6-1.8,0.6h-2.7V90.8L294.8,90.8z"/>
	<polygon fill-rule="evenodd" clip-rule="evenodd" points="327.8,88 314.4,88 314.4,90.9 319.5,90.9 319.5,103.8 322.7,103.8 
		322.7,90.9 327.8,90.9 327.8,88 	"/>
	<path fill-rule="evenodd" clip-rule="evenodd" d="M360.7,88h-6v15.8h3.2v-5.6h2.7c1.7,0,3.1-0.5,4.1-1.4c1.1-1,1.6-2.2,1.6-3.7
		c0-1.5-0.5-2.8-1.6-3.7C363.8,88.4,362.4,88,360.7,88L360.7,88z M360.7,90.8c0.7,0,1.3,0.2,1.8,0.6c0.4,0.4,0.6,1,0.6,1.6
		c0,0.7-0.2,1.2-0.6,1.7c-0.4,0.4-1,0.6-1.8,0.6H358v-4.6H360.7L360.7,90.8z"/>
	<path fill-rule="evenodd" clip-rule="evenodd" d="M390.7,103.8l-4.5-6.2c0.9-0.4,1.5-1,2-1.8c0.5-0.8,0.7-1.7,0.7-2.7
		c0-1.5-0.5-2.8-1.6-3.7c-1.1-0.9-2.4-1.4-4.1-1.4h-6v15.8h3.2v-5.6h2.4l4.1,5.6H390.7L390.7,103.8z M380.6,90.8h2.7
		c0.7,0,1.3,0.2,1.8,0.6c0.4,0.4,0.6,1,0.6,1.6c0,0.7-0.2,1.2-0.6,1.7c-0.4,0.4-1,0.6-1.8,0.6h-2.7V90.8L380.6,90.8z"/>
	<polygon fill-rule="evenodd" clip-rule="evenodd" points="407.1,88 403.8,88 403.8,103.8 407.1,103.8 407.1,88 	"/>
	<polygon fill-rule="evenodd" clip-rule="evenodd" points="430.4,88 430.4,97.4 421.2,87.7 420.2,87.7 420.2,103.8 423.4,103.8 
		423.4,94.3 432.6,104.1 433.6,104.1 433.6,88 430.4,88 	"/>
	<polygon fill-rule="evenodd" clip-rule="evenodd" points="459,88 445.6,88 445.6,90.9 450.7,90.9 450.7,103.8 454,103.8 454,90.9 
		459,90.9 459,88 	"/>
	<polygon fill-rule="evenodd" clip-rule="evenodd" points="474.4,88 471.2,88 471.2,103.8 474.4,103.8 474.4,88 	"/>
	<polygon fill-rule="evenodd" clip-rule="evenodd" points="498.7,88 498.7,97.4 489.5,87.7 488.5,87.7 488.5,103.8 491.7,103.8 
		491.7,94.3 500.9,104.1 502,104.1 502,88 498.7,88 	"/>
	<path fill-rule="evenodd" clip-rule="evenodd" d="M518.1,87.3c-2.4,0-4.4,0.8-6,2.4c-1.6,1.6-2.4,3.5-2.4,5.8
		c0,2.3,0.8,4.3,2.4,5.8c1.6,1.6,3.6,2.4,6,2.4c1.6,0,3.1-0.4,4.5-1.2c1.3-0.8,2.4-1.8,3.1-3.1v-4.7h-7.6v2.8h4.4v1.3
		c-0.9,1.3-2.3,2-4.2,2c-1.6,0-2.9-0.5-3.8-1.5c-1-1-1.5-2.3-1.5-3.8c0-1.5,0.5-2.8,1.4-3.7c0.9-1,2.2-1.5,3.7-1.5
		c1.8,0,3.3,0.8,4.4,2.3l2.3-1.9C523.2,88.5,521,87.3,518.1,87.3z"/>
	<rect x="115.8" y="73.2" fill-rule="evenodd" clip-rule="evenodd" width="410.1" height="2.1"/>
	<rect x="75.8" y="113.2" fill-rule="evenodd" clip-rule="evenodd" width="2.1" height="33.7"/>
	<rect x="75.8" y="1.7" fill-rule="evenodd" clip-rule="evenodd" width="2.1" height="33.7"/>
	<rect x="4.3" y="73.2" fill-rule="evenodd" clip-rule="evenodd" width="33.7" height="2.1"/>
</g>
</svg>
