<svg id="Слой_1" data-name="Слой 1" xmlns="http://www.w3.org/2000/svg" viewBox="0 0 108.48 19.19">
  <title>moquin-logo</title>
  <g>
    <path d="M8.33,10L8.65,10.8Q8.8,10.41,9,10t0.35-.74L14,0.47A1.21,1.21,0,0,1,14.21.21,0.55,0.55,0,0,1,14.42.07,0.92,0.92,0,0,1,14.67,0h2.57V15.91H14.64V5.63q0-.29,0-0.63t0-.69l-4.81,9a1.26,1.26,0,0,1-.43.48,1.11,1.11,0,0,1-.62.17H8.45a1.11,1.11,0,0,1-.62-0.17,1.27,1.27,0,0,1-.43-0.48L2.53,4.28c0,0.24,0,.48.06,0.71s0,0.45,0,.64V15.91H0V0H2.57a0.92,0.92,0,0,1,.26.06A0.6,0.6,0,0,1,3,.21a1.1,1.1,0,0,1,.19.26L8,9.31Q8.17,9.66,8.33,10Z" transform="translate(0 0.18)"/>
    <path d="M39,8a8.82,8.82,0,0,1-.58,3.24,7.67,7.67,0,0,1-1.64,2.58,7.43,7.43,0,0,1-2.54,1.7,9.18,9.18,0,0,1-6.58,0,7.47,7.47,0,0,1-2.55-1.7,7.64,7.64,0,0,1-1.64-2.58A8.82,8.82,0,0,1,22.89,8a8.81,8.81,0,0,1,.58-3.24,7.64,7.64,0,0,1,1.64-2.58A7.47,7.47,0,0,1,27.67.43,8.62,8.62,0,0,1,31-.18a8.51,8.51,0,0,1,3.29.62,7.53,7.53,0,0,1,2.54,1.7,7.62,7.62,0,0,1,1.64,2.57A8.81,8.81,0,0,1,39,8ZM36,8a7.41,7.41,0,0,0-.35-2.35,5,5,0,0,0-1-1.77,4.29,4.29,0,0,0-1.58-1.11,5.91,5.91,0,0,0-4.2,0,4.33,4.33,0,0,0-1.59,1.11,5,5,0,0,0-1,1.77A7.31,7.31,0,0,0,25.92,8a7.31,7.31,0,0,0,.35,2.35,4.93,4.93,0,0,0,1,1.76,4.35,4.35,0,0,0,1.59,1.11,5.91,5.91,0,0,0,4.2,0,4.32,4.32,0,0,0,1.58-1.11,4.91,4.91,0,0,0,1-1.76A7.41,7.41,0,0,0,36,8Z" transform="translate(0 0.18)"/>
    <path d="M59.91,8a9.24,9.24,0,0,1-.22,2,8.37,8.37,0,0,1-.63,1.82,7.61,7.61,0,0,1-1,1.56,7.14,7.14,0,0,1-1.35,1.25l4,4.4H58.29a3,3,0,0,1-1-.14,1.86,1.86,0,0,1-.78-0.53l-2.33-2.57a8.52,8.52,0,0,1-1.15.23,9.47,9.47,0,0,1-1.23.08,8.61,8.61,0,0,1-3.29-.61A7.47,7.47,0,0,1,46,13.77a7.64,7.64,0,0,1-1.64-2.58A8.82,8.82,0,0,1,43.78,8a8.81,8.81,0,0,1,.58-3.24A7.64,7.64,0,0,1,46,2.13,7.47,7.47,0,0,1,48.56.43a8.62,8.62,0,0,1,3.29-.61,8.51,8.51,0,0,1,3.29.62,7.53,7.53,0,0,1,2.54,1.7,7.62,7.62,0,0,1,1.64,2.57A8.81,8.81,0,0,1,59.91,8Zm-3,0a7.41,7.41,0,0,0-.35-2.35,5,5,0,0,0-1-1.77,4.29,4.29,0,0,0-1.58-1.11,5.91,5.91,0,0,0-4.2,0,4.33,4.33,0,0,0-1.59,1.11,5,5,0,0,0-1,1.77A7.31,7.31,0,0,0,46.81,8a7.31,7.31,0,0,0,.35,2.35,4.93,4.93,0,0,0,1,1.76,4.35,4.35,0,0,0,1.59,1.11,5.91,5.91,0,0,0,4.2,0,4.32,4.32,0,0,0,1.58-1.11,4.91,4.91,0,0,0,1-1.76A7.41,7.41,0,0,0,56.87,8Z" transform="translate(0 0.18)"/>
    <path d="M71.94,13.52a3.91,3.91,0,0,0,1.53-.29,3.2,3.2,0,0,0,1.14-.8,3.51,3.51,0,0,0,.71-1.25,5.16,5.16,0,0,0,.25-1.65V0h3V9.53a7.35,7.35,0,0,1-.46,2.62,5.92,5.92,0,0,1-1.31,2.08,6,6,0,0,1-2.08,1.36,8,8,0,0,1-5.5,0,5.83,5.83,0,0,1-3.38-3.44,7.35,7.35,0,0,1-.46-2.62V0h3V9.51a5.16,5.16,0,0,0,.25,1.65,3.61,3.61,0,0,0,.71,1.26,3.12,3.12,0,0,0,1.14.81A3.91,3.91,0,0,0,71.94,13.52Z" transform="translate(0 0.18)"/>
    <path d="M88.19,15.91h-3V0h3V15.91Z" transform="translate(0 0.18)"/>
    <path d="M96.94,0a0.79,0.79,0,0,1,.24.07,0.81,0.81,0,0,1,.2.14,2.27,2.27,0,0,1,.22.25L106,11.11q0-.39-0.06-0.75t0-.69V0h2.61V15.91H107a1.36,1.36,0,0,1-.58-0.11,1.3,1.3,0,0,1-.45-0.4L97.6,4.81q0,0.35,0,.7t0,0.63v9.77H95.06V0h1.55Z" transform="translate(0 0.18)"/>
  </g>
</svg>
